<svg width="25" height="35" viewBox="0 0 25 35" fill="none" xmlns="http://www.w3.org/2000/svg">
<path d="M24.625 17.8125C24.625 15.7405 23.8019 13.7534 22.3368 12.2882C20.8716 10.8231 18.8845 10 16.8125 10C14.7405 10 12.7534 10.8231 11.2882 12.2882C9.8231 13.7534 9 15.7405 9 17.8125C9 18.2269 9.16462 18.6243 9.45765 18.9174C9.75067 19.2104 10.1481 19.375 10.5625 19.375C10.9769 19.375 11.3743 19.2104 11.6674 18.9174C11.9604 18.6243 12.125 18.2269 12.125 17.8125C12.125 16.8854 12.3999 15.9791 12.915 15.2083C13.4301 14.4374 14.1621 13.8366 15.0187 13.4818C15.8752 13.127 16.8177 13.0342 17.727 13.2151C18.6363 13.3959 19.4715 13.8424 20.1271 14.4979C20.7826 15.1535 21.2291 15.9887 21.4099 16.898C21.5908 17.8073 21.498 18.7498 21.1432 19.6063C20.7884 20.4629 20.1876 21.1949 19.4167 21.71C18.6459 22.2251 17.7396 22.5 16.8125 22.5C16.3981 22.5 16.0007 22.6646 15.7076 22.9576C15.4146 23.2507 15.25 23.6481 15.25 24.0625V27.1875C15.25 27.6019 15.4146 27.9993 15.7076 28.2924C16.0007 28.5854 16.3981 28.75 16.8125 28.75C17.2269 28.75 17.6243 28.5854 17.9174 28.2924C18.2104 27.9993 18.375 27.6019 18.375 27.1875V25.4687C20.1396 25.1085 21.7256 24.1497 22.8645 22.7545C24.0035 21.3594 24.6254 19.6135 24.625 17.8125Z" fill="black"/>
<path d="M16.8126 34.9999C17.6756 34.9999 18.3751 34.3003 18.3751 33.4374C18.3751 32.5744 17.6756 31.8749 16.8126 31.8749C15.9497 31.8749 15.2501 32.5744 15.2501 33.4374C15.2501 34.3003 15.9497 34.9999 16.8126 34.9999Z" fill="black"/>
<path d="M7.33337 11.6667V1" stroke="black" stroke-width="2" stroke-miterlimit="10" stroke-linecap="round" stroke-linejoin="round"/>
<path d="M2 6.33325H12.6667" stroke="black" stroke-width="2" stroke-miterlimit="10" stroke-linecap="round" stroke-linejoin="round"/>
</svg>
