<svg width="39" height="41" viewBox="0 0 39 41" fill="none" xmlns="http://www.w3.org/2000/svg">
<path d="M39 25.5C39 34.0623 32.0598 41 23.5 41C14.9402 41 8 34.0623 8 25.5C8 16.9427 14.9402 10 23.5 10C32.0598 10 39 16.9427 39 25.5ZM23.9159 15.125C20.5099 15.125 18.3375 16.5598 16.6316 19.1099C16.4106 19.4402 16.4846 19.8858 16.8013 20.126L18.97 21.7704C19.2953 22.0171 19.7588 21.9584 20.0116 21.6377C21.1281 20.2216 21.8936 19.4004 23.593 19.4004C24.8698 19.4004 26.4491 20.2222 26.4491 21.4603C26.4491 22.3963 25.6764 22.877 24.4158 23.5838C22.9455 24.408 21 25.4338 21 28V28.25C21 28.6642 21.3358 29 21.75 29H25.25C25.6642 29 26 28.6642 26 28.25V28.1667C26 26.3878 31.1991 26.3137 31.1991 21.5C31.1991 17.8749 27.4388 15.125 23.9159 15.125ZM23.5 30.625C21.9147 30.625 20.625 31.9147 20.625 33.5C20.625 35.0853 21.9147 36.375 23.5 36.375C25.0853 36.375 26.375 35.0853 26.375 33.5C26.375 31.9147 25.0853 30.625 23.5 30.625Z" fill="black"/>
<path d="M13.9286 5.89286H9.10714V1.07143C9.10714 0.479799 8.62734 0 8.03571 0H6.96429C6.37266 0 5.89286 0.479799 5.89286 1.07143V5.89286H1.07143C0.479799 5.89286 0 6.37266 0 6.96429V8.03571C0 8.62734 0.479799 9.10714 1.07143 9.10714H5.89286V13.9286C5.89286 14.5202 6.37266 15 6.96429 15H8.03571C8.62734 15 9.10714 14.5202 9.10714 13.9286V9.10714H13.9286C14.5202 9.10714 15 8.62734 15 8.03571V6.96429C15 6.37266 14.5202 5.89286 13.9286 5.89286Z" fill="black"/>
</svg>
